HIERARCHY
ROOT Hips
{
  OFFSET -31.5692 30.0904 122.763
  CHANNELS 6 Xposition Yposition Zposition Zrotation Xrotation Yrotation
  JOINT LeftUpLeg
  {
    OFFSET 8.64259 1.95398 -2.38835
    CHANNELS 3 Zrotation Xrotation Yrotation
    JOINT LeftLeg
    {
      OFFSET 43.7702 0 0
      CHANNELS 3 Zrotation Xrotation Yrotation
      JOINT LeftFoot
      {
        OFFSET 40.6238 0 0
        CHANNELS 3 Zrotation Xrotation Yrotation
        JOINT LeftToeBase
        {
          OFFSET 12.7242 0 0
          CHANNELS 3 Zrotation Xrotation Yrotation
          End Site
          {
            OFFSET 0 0 0
          }
        }
      }
    }
  }
  JOINT RightUpLeg
  {
    OFFSET -8.2249 1.95398 -2.59336
    CHANNELS 3 Zrotation Xrotation Yrotation
    JOINT RightLeg
    {
      OFFSET 43.5653 0 0
      CHANNELS 3 Zrotation Xrotation Yrotation
      JOINT RightFoot
      {
        OFFSET 40.6238 0 0
        CHANNELS 3 Zrotation Xrotation Yrotation
        JOINT RightToeBase
        {
          OFFSET 12.7242 0 0
          CHANNELS 3 Zrotation Xrotation Yrotation
          End Site
          {
            OFFSET 0 0 0
          }
        }
      }
    }
  }
  JOINT Spine
  {
    OFFSET 0.165834 0.87714 6.61349
    CHANNELS 3 Zrotation Xrotation Yrotation
    JOINT Spine1
    {
      OFFSET 7.38963 1.71661e-005 0
      CHANNELS 3 Zrotation Xrotation Yrotation
      JOINT Spine2
      {
        OFFSET 11.9445 1.14441e-005 0
        CHANNELS 3 Zrotation Xrotation Yrotation
        JOINT Spine3
        {
          OFFSET 14.7254 4.19617e-005 0
          CHANNELS 3 Zrotation Xrotation Yrotation
          JOINT Spine4
          {
            OFFSET 10.9679 0 0
            CHANNELS 3 Zrotation Xrotation Yrotation
            JOINT RightShoulder
            {
              OFFSET 2.46616 -1.6653 3.69651
              CHANNELS 3 Zrotation Xrotation Yrotation
              JOINT RightArm
              {
                OFFSET 13.0012 0 0
                CHANNELS 3 Zrotation Xrotation Yrotation
                JOINT RightForeArm
                {
                  OFFSET 28.7848 1.62311e-005 0
                  CHANNELS 3 Zrotation Xrotation Yrotation
                  JOINT RightHand
                  {
                    OFFSET 26.5688 1.62095e-005 0
                    CHANNELS 3 Zrotation Xrotation Yrotation
                    End Site
                    {
                      OFFSET 0 0 0
                    }
                  }
                }
              }
            }
            JOINT LeftShoulder
            {
              OFFSET 2.38034 -1.29275 -3.7523
              CHANNELS 3 Zrotation Xrotation Yrotation
              JOINT LeftArm
              {
                OFFSET 16.3182 6.07031e-005 0
                CHANNELS 3 Zrotation Xrotation Yrotation
                JOINT LeftForeArm
                {
                  OFFSET 27.0901 0 0
                  CHANNELS 3 Zrotation Xrotation Yrotation
                  JOINT LeftHand
                  {
                    OFFSET 24.5451 1.51738e-005 0
                    CHANNELS 3 Zrotation Xrotation Yrotation
                    End Site
                    {
                      OFFSET 0 0 0
                    }
                  }
                }
              }
            }
            JOINT Neck
            {
              OFFSET 5.0226 -0.0266342 0
              CHANNELS 3 Zrotation Xrotation Yrotation
              JOINT Head
              {
                OFFSET 6.69364 2.86102e-005 0
                CHANNELS 3 Zrotation Xrotation Yrotation
                End Site
                {
                  OFFSET 0 0 0
                }
              }
            }
          }
        }
      }
    }
  }
}
MOTION
Frames:	14
Frame Time:	0.0416667
-103.316 23.9425 118.074 -9.71189 -11.1317 -89.664 -144.515 26.6371 107.006 -63.099 22.5659 -14.5445 80.9056 11.5369 -5.81228 34.915 -1.55206 15.7333 168.038 7.12861 83.0627 -37.7475 -16.8089 -0.144767 72.3999 -7.29882 0.707049 30.4212 -1.71967 5.28526 -0.0469367 6.99442 -89.4544 12.883 0.168342 1.07055 1.21162 0.215272 1.06208 -21.32 -0.161177 1.07165 -1.30738 -0.161187 1.07164 85.8506 -29.4064 -115.17 -5.75863 59.1869 7.35342 -58.2902 -5.45629 -95.9237 -47.2862 -0.190286 -10.231 -91.2699 -46.2202 75.9086 -22.1072 -32.4058 -71.5777 58.3523 41.1486 -72.3977 41.5333 -12.7879 -28.1103 46.7777 -1.46037 2.07712 -9.09979 -2.48509 -0.528731 
-101.978 25.0042 120.242 -9.75714 -7.12978 -89.0479 -147.278 22.8487 107.447 -59.97 18.3883 -13.8383 67.9112 3.29722 -4.92247 32.4945 -2.31643 13.2644 166.861 10.8479 82.1284 -41.8302 -16.7713 0.519971 72.7313 -7.27462 1.02904 32.0253 -2.47054 5.90476 0.296696 6.96134 -89.6382 12.9492 0.762669 0.630795 1.2783 0.789694 0.596596 -21.2566 0.537832 0.83081 -1.244 0.537825 0.830826 85.1489 -27.8918 -117.336 -8.88857 59.6693 7.61607 -54.7596 -8.86996 -88.7271 -47.5551 2.14998 -15.4945 -91.3465 -46.3097 75.8121 -22.0088 -30.2514 -73.5559 59.2273 42.9171 -71.1443 41.7537 -12.1209 -26.3538 45.5935 -0.429311 4.07571 -8.72249 -2.50123 -2.29011 
-99.9395 25.9823 122.294 -9.71183 -3.1202 -87.9581 -149.969 17.5347 107.048 -51.7183 10.4459 -14.1467 69.2584 3.95575 -4.95888 29.4541 -4.18888 13.1641 166.683 14.4857 81.3176 -45.7496 -19.4763 0.379083 74.2858 -8.11986 1.58221 33.485 -3.01071 5.59955 0.703528 6.99044 -89.8889 12.893 1.4502 0.0479082 1.2229 1.45091 -0.0159785 -21.3181 1.36874 0.481624 -1.30546 1.36875 0.481612 86.5828 -24.6646 -116.22 -7.79922 60.1209 5.01042 -53.9072 -12.3546 -82.7594 -47.1512 2.88378 -17.2776 -91.1976 -44.9099 75.685 -24.9106 -28.6528 -77.3363 60.2182 44.3704 -70.7997 40.2872 -10.9778 -24.9035 45.6309 -0.0690794 4.11104 -9.05884 -2.18501 -2.14685 
-97.4226 27.0771 124.096 -10.3454 -2.06976 -88.2777 -150.671 14.65 105.825 -42.1649 10.1874 -15.4342 76.0024 8.13466 -6.51013 33.4914 -2.83703 16.8936 165.35 17.0311 79.5347 -48.8942 -21.6729 0.700801 76.2084 -9.57001 0.5711 36.6845 -4.28912 5.75994 0.76861 7.14664 -90.1106 12.5848 1.47406 -0.394233 0.914577 1.45526 -0.458767 -21.6273 1.52439 0.0670903 -1.61468 1.52439 0.0670937 87.4595 -21.3966 -116.218 -9.13247 60.9854 3.17881 -51.9959 -15.1917 -76.9626 -46.1264 3.41476 -18.6679 -91.3697 -45.7906 75.6468 -27.6061 -27.021 -82.8334 64.7158 45.7597 -71.8633 37.7201 -9.77761 -24.0439 46.036 1.09529 6.31836 -9.13988 -2.23601 -3.85042 
-95.3429 28.3174 125.338 -11.265 -1.05492 -88.0581 -151.352 15.6774 105.263 -41.0822 14.3111 -14.5678 78.8755 10.3329 -5.98826 36.5253 -1.49535 19.15 164.588 19.4496 78.9106 -52.8199 -21.4057 0.956761 77.4767 -10.2408 0.500506 40.1442 -5.29879 1.12098 0.870166 7.32354 -90.1044 12.2309 1.68021 -0.396135 0.560946 1.66115 -0.469712 -21.9829 1.72155 0.127298 -1.97028 1.72154 0.127276 87.5114 -21.8394 -115.842 -10.2521 60.4621 -0.545282 -51.9105 -18.1883 -70.0041 -43.6974 3.20007 -18.7989 -91.4978 -42.2591 74.4873 -30.4548 -25.4675 -86.5209 70.5362 47.9306 -74.298 36.6969 -8.66635 -21.8683 45.5724 -0.23227 3.72004 -8.2669 -2.17372 -1.37054 
-93.8927 29.2705 126.774 -11.9003 1.43914 -88.0289 -151.084 16.9804 105.071 -44.9296 14.9775 -13.8862 81.6913 11.5316 -7.73652 36.4208 -1.69932 19.6055 164.404 23.235 78.6945 -58.6269 -20.1982 0.762842 78.0461 -10.4282 0.0533161 38.4923 -4.60321 1.45884 0.946633 7.38194 -90.1188 12.115 1.82567 -0.438224 0.445224 1.80462 -0.518184 -22.1002 1.87294 0.130908 -2.08758 1.87294 0.130927 86.7452 -20.7021 -118.224 -11.2212 59.7234 -1.96899 -48.9618 -19.5489 -63.8377 -44.0446 3.71969 -19.6975 -90.858 -41.0979 75.2103 -30.4681 -25.0327 -88.6556 70.2149 49.7186 -72.7385 35.9402 -7.83558 -20.2546 44.3155 -0.146469 3.5089 -7.749 -1.92801 -1.73708 
-93.2083 29.1969 128.42 -12.1535 2.05003 -87.6559 -150.671 18.5404 104.946 -48.911 16.77 -13.4208 82.9358 12.3401 -7.67203 35.1687 -2.44177 19.1927 162.583 24.7559 77.9108 -60.5714 -19.4825 1.60588 77.6622 -10.1494 -0.234277 38.7699 -4.67869 0.958467 0.928462 7.31343 -90.2602 12.2539 1.7221 -0.712267 0.583891 1.68908 -0.787394 -21.9603 1.85651 -0.161623 -1.94766 1.85653 -0.16162 87.6363 -20.3508 -116.453 -5.30772 61.722 -9.44437 -53.524 -25.5575 -63.8312 -41.0257 2.37924 -17.991 -90.207 -40.2863 76.0715 -32.0355 -23.1041 -90.0051 73.1648 51.2813 -74.0852 35.272 -7.46758 -19.7301 45.0644 0.589084 3.59601 -8.17689 -1.28868 -2.21341 
-93.0181 27.9109 130.026 -12.5439 2.7178 -86.9982 -149.228 19.9401 105.492 -53.678 17.4187 -13.373 82.4193 11.8295 -8.00098 35.4091 -2.31661 19.3224 161.505 24.0646 76.7761 -60.1944 -20.8639 1.82202 77.3154 -10.0479 -0.0763887 40.047 -5.20477 0.485162 1.02285 7.19896 -90.3177 12.4841 1.88101 -0.851763 0.814118 1.84168 -0.933757 -21.7316 2.05001 -0.24685 -1.71893 2.05 -0.246862 89.4836 -19.1435 -112.929 6.44159 62.4969 -17.1632 -57.4687 -26.9657 -68.8391 -38.8501 1.12849 -15.6165 -92.4765 -39.4946 72.0526 -30.814 -24.3349 -89.3688 72.9414 52.9831 -73.8322 34.9454 -7.23502 -19.3406 47.1559 -1.00724 -0.301904 -10.2487 -0.83826 1.05159 
-93.1431 26.0417 131.6 -12.6472 1.90761 -86.7702 -148.605 19.3807 105.601 -55.2687 18.5466 -13.2982 83.1533 12.2934 -7.90606 35.1326 -2.47018 19.1998 159.685 22.6238 74.5905 -58.7008 -22.5974 2.4392 77.7856 -10.319 0.779276 39.5701 -4.96017 0.120744 1.01641 7.03429 -90.407 12.8144 1.82359 -1.03174 1.14427 1.77643 -1.11102 -21.4003 2.04935 -0.435791 -1.38766 2.04932 -0.435832 90.7225 -15.0866 -112.324 16.4926 64.5478 -14.1309 -59.9018 -21.5432 -80.5434 -35.9391 0.642889 -14.8674 -90.3787 -39.5734 75.5876 -31.9236 -18.2757 -89.6032 74.0151 52.814 -74.5987 34.1769 -6.98334 -19.2667 47.2817 -0.224427 1.3645 -10.3817 -0.925939 -0.73274 
-93.4327 24.4411 132.94 -12.4147 0.21834 -86.4109 -150.109 16.4661 105.05 -52.3858 17.502 -12.7078 85.8461 13.6076 -8.76562 35.2543 -2.13528 18.3852 157.589 21.1112 72.7222 -56.6903 -24.4347 3.63952 77.6568 -10.2885 1.13729 39.0573 -4.70518 -0.14241 1.05527 6.87233 -90.3844 13.1389 1.90949 -1.00525 1.46892 1.86338 -1.08834 -21.0768 2.1233 -0.384704 -1.06417 2.12329 -0.384708 90.4571 -18.0991 -111.25 27.0929 66.2353 -10.3285 -62.3424 -13.7975 -93.6776 -39.0139 -0.50399 -10.9097 -91.5319 -35.7525 72.4484 -34.1644 -16.747 -88.673 75.2332 53.7631 -75.2056 34.8319 -6.81933 -18.1587 46.3158 -2.36224 -1.68275 -9.61166 -1.40624 2.21298 
-93.2573 23.6323 134.343 -11.8391 -1.86571 -87.1677 -151.338 14.9246 102.663 -51.9879 15.3602 -12.3529 87.9324 14.6908 -8.98176 35.1097 -2.43703 19.044 156.102 21.338 69.7488 -55.159 -28.4271 3.89744 76.6056 -9.93015 1.21986 40.6299 -5.40703 -0.274435 1.10671 6.78527 -90.4871 13.3147 1.96081 -1.22283 1.64461 1.90509 -1.30797 -20.901 2.23764 -0.576777 -0.888405 2.23764 -0.576784 87.5183 -25.1652 -113.993 17.3974 71.1969 2.26038 -62.4304 -10.544 -98.4442 -42.7719 -0.729004 -10.0347 -89.0895 -37.0003 77.1009 -35.0485 -9.01194 -90.6166 75.1931 54.1092 -74.9279 35.8267 -6.78002 -17.176 46.2773 -1.63205 2.41448 -9.81079 -2.86321 0.135242 
-92.7206 23.0209 135.907 -11.0622 -6.21161 -88.3635 -153.522 15.0008 99.4384 -53.6086 15.1148 -11.1924 88.6626 15.1624 -8.74938 35.8397 -2.0734 19.5041 152.885 21.7774 65.7275 -53.0515 -32.1366 5.14217 75.7859 -9.7659 1.19364 42.8423 -6.43345 0.17794 0.980798 6.79426 -90.6293 13.296 1.6423 -1.46657 1.62519 1.57617 -1.53744 -20.9153 2.00711 -0.905125 -0.90261 2.00712 -0.905134 87.4498 -26.112 -113.639 -0.615062 73.3195 17.1693 -57.5594 -7.56011 -99.7157 -43.1946 -0.231446 -10.4635 -88.3693 -37.6467 78.5117 -36.6843 -6.35608 -93.296 73.6167 53.898 -73.7566 35.4668 -6.71929 -17.3509 45.5025 -1.08537 6.13148 -8.98375 -4.31974 -0.622404 
-92.1037 23.3374 137.144 -9.63977 -7.94256 -91.1432 -155.868 15.1163 95.2857 -53.3595 16.0248 -10.7243 89.2382 15.3756 -9.31944 34.7123 -2.97875 19.8822 151.582 25.9857 62.2406 -54.1044 -34.3223 5.24784 75.171 -9.63272 0.910577 43.6115 -6.77689 0.157221 0.788903 6.66686 -90.646 13.5472 1.25155 -1.45582 1.87595 1.18628 -1.50949 -20.6604 1.6312 -1.01239 -0.647793 1.63119 -1.0124 89.0946 -24.1611 -111.16 4.62627 66.3295 7.55309 -54.1805 -5.4672 -100.198 -43.3361 -0.379002 -9.5464 -87.7186 -38.4914 79.8415 -39.218 -6.80201 -93.9452 72.2185 54.198 -72.1811 36.0573 -7.05427 -17.8433 39.3388 0.070764 8.92594 -6.39185 -4.24698 -0.634332 
-91.4452 24.239 138.458 -8.63849 -5.17688 -94.2442 -156.576 14.3701 91.444 -51.4796 16.865 -11.8822 88.2561 15.312 -8.40322 36.1613 -1.91272 19.7108 152.183 32.424 60.1664 -58.1861 -32.0652 4.4045 76.0272 -9.92173 1.45185 41.7202 -5.8292 -1.45288 0.549059 6.57439 -90.6958 13.7282 0.75027 -1.49315 2.05664 0.68385 -1.5247 -20.4755 1.1643 -1.19869 -0.462841 1.16432 -1.19867 89.651 -22.6881 -110.678 14.5433 59.6007 -10.8676 -57.3079 -5.39383 -100.071 -39.3949 -1.65156 -6.4146 -86.162 -38.2888 82.487 -43.3535 -11.5564 -93.4743 69.5598 54.5068 -70.74 36.2178 -7.17539 -18.1189 30.2206 2.78667 13.3242 -2.74182 -2.72519 -2.22352 
